<svg xmlns="http://www.w3.org/2000/svg" xmlns:xlink="http://www.w3.org/1999/xlink" width="34.4mm" height="124.033" viewBox="0 0 121.891 116.281"><defs><radialGradient id="c" cx="256.24" cy="575.08" r="55.036" gradientTransform="matrix(1 0 0 .55738 0 254.54)" gradientUnits="userSpaceOnUse"><stop offset="0" stop-color="#275a94"/><stop offset=".625" stop-color="#2f6db3"/><stop offset="1" stop-color="#2f6db3" stop-opacity="0"/></radialGradient><radialGradient xlink:href="#a" id="d" cx="256.24" cy="575.08" r="55.036" gradientTransform="matrix(1 0 0 .55738 0 254.54)" gradientUnits="userSpaceOnUse"/><radialGradient xlink:href="#b" id="e" cx="348.65" cy="415.11" r="20.254" gradientTransform="matrix(1.5753 .00006 -.00006 1.6138 -200.56 -254.81)" gradientUnits="userSpaceOnUse"/><radialGradient id="f" cx="272.85" cy="488.88" r="69.839" gradientUnits="userSpaceOnUse"><stop offset="0" stop-color="#fff"/><stop offset="1" stop-color="#fff" stop-opacity="0"/></radialGradient><radialGradient id="g" cx="304.81" cy="455.11" r="70.139" gradientTransform="matrix(1.4856 -.02447 .02652 1.6105 -160.09 -270.4)" gradientUnits="userSpaceOnUse"><stop offset="0" stop-color="#90cdfd"/><stop offset="1" stop-color="#0a12ad"/></radialGradient><radialGradient xlink:href="#a" id="h" cx="340.95" cy="422.51" r="19.954" gradientUnits="userSpaceOnUse"/><linearGradient id="a"><stop offset="0" stop-color="#275a94"/><stop offset=".813" stop-color="#2f6db3"/><stop offset="1" stop-color="#2f6db3" stop-opacity="0"/></linearGradient><linearGradient id="b"><stop offset="0" stop-color="#92e6ff"/><stop offset="1" stop-color="#0a12ad"/></linearGradient></defs><g transform="translate(-49.05 -365.547)"><ellipse cx="256.24" cy="575.08" fill="url(#c)" opacity=".622" rx="55.036" ry="30.676" transform="matrix(.16287 0 0 .22521 79.509 316.98)"/><ellipse cx="256.24" cy="575.08" fill="url(#d)" opacity=".622" rx="55.036" ry="30.676" transform="matrix(.7246 0 0 1.0019 -96.514 -145.38)"/><circle cx="340.95" cy="422.51" r="19.954" fill="url(#e)" transform="translate(-36.966 240.43)scale(.4802)"/></g><path fill="#aadcfa" fill-opacity=".765" d="M111.28 41.203v50.89L70.014 50.961V-.001z"/><path fill="#8ed0f8" fill-opacity=".765" d="M70.01-.007.004 24.18v50.89L70.01 50.956z"/><g transform="translate(-49.05 -365.547)"><circle cx="272.85" cy="488.88" r="69.839" fill="url(#f)" transform="translate(-76.75 93.507)scale(.66431)"/><circle cx="272.85" cy="488.88" r="69.839" fill="url(#g)" transform="translate(-24.079 187.88)scale(.47127)"/><circle cx="340.95" cy="422.51" r="19.954" fill="url(#h)" opacity=".455" transform="matrix(.44407 0 .06185 .44407 -59.818 215.26)"/></g><g fill="url(#e)" transform="translate(-49.05 -365.547)"><circle cx="340.95" cy="422.51" r="19.954" transform="translate(-25.999 181.46)scale(.4802)"/><circle cx="340.95" cy="422.51" r="19.954" transform="translate(-90.974 214.96)scale(.4458)"/><circle cx="340.95" cy="422.51" r="19.954" transform="translate(75.219 283.7)scale(.26524)"/><circle cx="340.95" cy="422.51" r="19.954" transform="translate(-24.583 266.77)scale(.36842)"/></g><path fill="#9dd7f9" fill-opacity=".765" d="M111.28 92.093v-50.89L41.202 65.462v50.818z"/><path fill="#80caf7" fill-opacity=".765" d="m.004 24.183 41.194 41.276v50.818L.004 75.073z"/></svg>